# MagicaVoxel @ Ephtracy

# group
o 

# material
mtllib glider.mtl
usemtl palette

# normals
vn -1 0 0
vn 1 0 0
vn 0 0 1
vn 0 0 -1
vn 0 -1 0
vn 0 1 0

# texcoords
vt 0.533203 0.5
vt 0.841797 0.5
vt 0.958984 0.5

# verts
v -1 1.9 -0.8
v -1 1.9 -1.1
v -1 2 -0.8
v -1 2 -1.1
v -0.9 1.9 -0.6
v -0.9 1.9 -0.8
v -0.9 2 -0.6
v -0.9 2 -0.8
v -0.8 1.9 -0.4
v -0.8 1.9 -0.6
v -0.8 2 -0.4
v -0.8 2 -0.6
v -0.7 1.9 -0.1
v -0.7 1.9 -0.4
v -0.7 2 -0.1
v -0.7 2 -0.4
v -0.6 1.9 0.1
v -0.6 1.9 -0.1
v -0.6 2 0.1
v -0.6 2 -0.1
v -0.5 1.9 0.4
v -0.5 1.9 0.1
v -0.5 2 0.4
v -0.5 2 0.1
v -0.4 1.9 0.6
v -0.4 1.9 0.4
v -0.4 2 0.6
v -0.4 2 0.4
v -0.3 1.9 0.8
v -0.3 1.9 0.6
v -0.3 2 0.8
v -0.3 2 0.6
v -0.2 1.9 1
v -0.2 1.9 0.8
v -0.2 2 1
v -0.2 2 0.8
v 0.2 1.9 1
v 0.2 1.9 0.8
v 0.2 2 1
v 0.2 2 0.8
v 0.3 1.9 0.8
v 0.3 1.9 0.6
v 0.3 2 0.8
v 0.3 2 0.6
v 0.4 1.9 0.6
v 0.4 1.9 0.4
v 0.4 2 0.6
v 0.4 2 0.4
v 0.5 1.9 0.4
v 0.5 1.9 0.1
v 0.5 2 0.4
v 0.5 2 0.1
v 0.6 1.9 0.1
v 0.6 1.9 -0.1
v 0.6 2 0.1
v 0.6 2 -0.1
v 0.7 1.9 -0.1
v 0.7 1.9 -0.4
v 0.7 2 -0.1
v 0.7 2 -0.4
v 0.8 1.9 -0.4
v 0.8 1.9 -0.6
v 0.8 2 -0.4
v 0.8 2 -0.6
v 0.9 1.9 -0.6
v 0.9 1.9 -0.7
v 0.9 1.9 -0.8
v 0.9 2 -0.6
v 0.9 2 -0.7
v 0.9 2 -0.8
v 1 1.9 -0.8
v 1 1.9 -1.1
v 1 2 -0.8
v 1 2 -1.1
v -0.2 1.9 1
v -0.2 2 1
v -0.1 1.9 1
v -0.1 2 1
v 0.1 1.9 1
v 0.1 2 1
v 0.2 1.9 1
v 0.2 2 1
v -0.3 1.9 0.8
v -0.3 2 0.8
v -0.2 1.9 0.8
v -0.2 2 0.8
v 0.2 1.9 0.8
v 0.2 2 0.8
v 0.3 1.9 0.8
v 0.3 2 0.8
v -0.4 1.9 0.6
v -0.4 2 0.6
v -0.3 1.9 0.6
v -0.3 2 0.6
v 0.3 1.9 0.6
v 0.3 2 0.6
v 0.4 1.9 0.6
v 0.4 2 0.6
v -0.5 1.9 0.4
v -0.5 2 0.4
v -0.4 1.9 0.4
v -0.4 2 0.4
v 0.4 1.9 0.4
v 0.4 2 0.4
v 0.5 1.9 0.4
v 0.5 2 0.4
v -0.6 1.9 0.1
v -0.6 2 0.1
v -0.5 1.9 0.1
v -0.5 2 0.1
v 0.5 1.9 0.1
v 0.5 2 0.1
v 0.6 1.9 0.1
v 0.6 2 0.1
v -0.7 1.9 -0.1
v -0.7 2 -0.1
v -0.6 1.9 -0.1
v -0.6 2 -0.1
v 0.6 1.9 -0.1
v 0.6 2 -0.1
v 0.7 1.9 -0.1
v 0.7 2 -0.1
v -0.8 1.9 -0.4
v -0.8 2 -0.4
v -0.7 1.9 -0.4
v -0.7 2 -0.4
v 0.7 1.9 -0.4
v 0.7 2 -0.4
v 0.8 1.9 -0.4
v 0.8 2 -0.4
v -0.9 1.9 -0.6
v -0.9 2 -0.6
v -0.8 1.9 -0.6
v -0.8 2 -0.6
v 0.8 1.9 -0.6
v 0.8 2 -0.6
v 0.9 1.9 -0.6
v 0.9 2 -0.6
v -1 1.9 -0.8
v -1 2 -0.8
v -0.9 1.9 -0.8
v -0.9 2 -0.8
v 0.9 1.9 -0.8
v 0.9 2 -0.8
v 1 1.9 -0.8
v 1 2 -0.8
v -1 1.9 -1.1
v -1 2 -1.1
v 1 1.9 -1.1
v 1 2 -1.1
v -0.2 1.9 1
v -0.1 1.9 1
v 0.1 1.9 1
v 0.2 1.9 1
v -0.3 1.9 0.8
v -0.2 1.9 0.8
v -0.1 1.9 0.8
v 0.1 1.9 0.8
v 0.2 1.9 0.8
v 0.3 1.9 0.8
v -0.4 1.9 0.6
v -0.3 1.9 0.6
v -0.2 1.9 0.6
v 0.2 1.9 0.6
v 0.3 1.9 0.6
v 0.4 1.9 0.6
v -0.5 1.9 0.4
v -0.4 1.9 0.4
v -0.3 1.9 0.4
v 0.3 1.9 0.4
v 0.4 1.9 0.4
v 0.5 1.9 0.4
v -0.6 1.9 0.1
v -0.5 1.9 0.1
v -0.4 1.9 0.1
v 0.4 1.9 0.1
v 0.5 1.9 0.1
v 0.6 1.9 0.1
v -0.7 1.9 -0.1
v -0.6 1.9 -0.1
v -0.5 1.9 -0.1
v 0.5 1.9 -0.1
v 0.6 1.9 -0.1
v 0.7 1.9 -0.1
v -0.8 1.9 -0.4
v -0.7 1.9 -0.4
v -0.6 1.9 -0.4
v 0.6 1.9 -0.4
v 0.7 1.9 -0.4
v 0.8 1.9 -0.4
v -0.9 1.9 -0.6
v -0.8 1.9 -0.6
v -0.7 1.9 -0.6
v 0.7 1.9 -0.6
v 0.8 1.9 -0.6
v 0.9 1.9 -0.6
v 0.8 1.9 -0.7
v 0.9 1.9 -0.7
v -1 1.9 -0.8
v -0.9 1.9 -0.8
v -0.8 1.9 -0.8
v 0.9 1.9 -0.8
v 1 1.9 -0.8
v -0.9 1.9 -1
v -0.7 1.9 -1
v -0.5 1.9 -1
v -0.3 1.9 -1
v -0.1 1.9 -1
v 0.1 1.9 -1
v 0.3 1.9 -1
v 0.5 1.9 -1
v 0.7 1.9 -1
v 0.9 1.9 -1
v -1 1.9 -1.1
v 1 1.9 -1.1
v -0.2 2 1
v -0.1 2 1
v 0.1 2 1
v 0.2 2 1
v -0.3 2 0.8
v -0.2 2 0.8
v -0.1 2 0.8
v 0.1 2 0.8
v 0.2 2 0.8
v 0.3 2 0.8
v -0.4 2 0.6
v -0.3 2 0.6
v -0.2 2 0.6
v 0.2 2 0.6
v 0.3 2 0.6
v 0.4 2 0.6
v -0.5 2 0.4
v -0.4 2 0.4
v -0.3 2 0.4
v 0.3 2 0.4
v 0.4 2 0.4
v 0.5 2 0.4
v -0.6 2 0.1
v -0.5 2 0.1
v -0.4 2 0.1
v 0.4 2 0.1
v 0.5 2 0.1
v 0.6 2 0.1
v -0.7 2 -0.1
v -0.6 2 -0.1
v -0.5 2 -0.1
v 0.5 2 -0.1
v 0.6 2 -0.1
v 0.7 2 -0.1
v -0.8 2 -0.4
v -0.7 2 -0.4
v -0.6 2 -0.4
v 0.6 2 -0.4
v 0.7 2 -0.4
v 0.8 2 -0.4
v -0.9 2 -0.6
v -0.8 2 -0.6
v -0.7 2 -0.6
v 0.7 2 -0.6
v 0.8 2 -0.6
v 0.9 2 -0.6
v 0.8 2 -0.7
v 0.9 2 -0.7
v -1 2 -0.8
v -0.9 2 -0.8
v -0.8 2 -0.8
v 0.9 2 -0.8
v 1 2 -0.8
v -0.9 2 -1
v -0.7 2 -1
v -0.5 2 -1
v -0.3 2 -1
v -0.1 2 -1
v 0.1 2 -1
v 0.3 2 -1
v 0.5 2 -1
v 0.7 2 -1
v 0.9 2 -1
v -1 2 -1.1
v 1 2 -1.1

# faces
f 3/1/1 2/1/1 1/1/1
f 4/1/1 2/1/1 3/1/1
f 7/1/1 6/1/1 5/1/1
f 8/1/1 6/1/1 7/1/1
f 11/1/1 10/1/1 9/1/1
f 12/1/1 10/1/1 11/1/1
f 15/1/1 14/1/1 13/1/1
f 16/1/1 14/1/1 15/1/1
f 19/1/1 18/1/1 17/1/1
f 20/1/1 18/1/1 19/1/1
f 23/1/1 22/1/1 21/1/1
f 24/1/1 22/1/1 23/1/1
f 27/1/1 26/1/1 25/1/1
f 28/1/1 26/1/1 27/1/1
f 31/1/1 30/1/1 29/1/1
f 32/1/1 30/1/1 31/1/1
f 35/1/1 34/1/1 33/1/1
f 36/1/1 34/1/1 35/1/1
f 37/1/2 38/1/2 39/1/2
f 39/1/2 38/1/2 40/1/2
f 41/1/2 42/1/2 43/1/2
f 43/1/2 42/1/2 44/1/2
f 45/1/2 46/1/2 47/1/2
f 47/1/2 46/1/2 48/1/2
f 49/1/2 50/1/2 51/1/2
f 51/1/2 50/1/2 52/1/2
f 53/1/2 54/1/2 55/1/2
f 55/1/2 54/1/2 56/1/2
f 57/1/2 58/1/2 59/1/2
f 59/1/2 58/1/2 60/1/2
f 61/1/2 62/1/2 63/1/2
f 63/1/2 62/1/2 64/1/2
f 65/1/2 66/1/2 68/1/2
f 66/2/2 67/2/2 69/2/2
f 68/1/2 66/1/2 69/1/2
f 69/2/2 67/2/2 70/2/2
f 71/1/2 72/1/2 73/1/2
f 73/1/2 72/1/2 74/1/2
f 77/1/3 76/1/3 75/1/3
f 78/1/3 76/1/3 77/1/3
f 79/2/3 78/2/3 77/2/3
f 80/2/3 78/2/3 79/2/3
f 81/1/3 80/1/3 79/1/3
f 82/1/3 80/1/3 81/1/3
f 85/1/3 84/1/3 83/1/3
f 86/1/3 84/1/3 85/1/3
f 89/1/3 88/1/3 87/1/3
f 90/1/3 88/1/3 89/1/3
f 93/1/3 92/1/3 91/1/3
f 94/1/3 92/1/3 93/1/3
f 97/1/3 96/1/3 95/1/3
f 98/1/3 96/1/3 97/1/3
f 101/1/3 100/1/3 99/1/3
f 102/1/3 100/1/3 101/1/3
f 105/1/3 104/1/3 103/1/3
f 106/1/3 104/1/3 105/1/3
f 109/1/3 108/1/3 107/1/3
f 110/1/3 108/1/3 109/1/3
f 113/1/3 112/1/3 111/1/3
f 114/1/3 112/1/3 113/1/3
f 117/1/3 116/1/3 115/1/3
f 118/1/3 116/1/3 117/1/3
f 121/1/3 120/1/3 119/1/3
f 122/1/3 120/1/3 121/1/3
f 125/1/3 124/1/3 123/1/3
f 126/1/3 124/1/3 125/1/3
f 129/1/3 128/1/3 127/1/3
f 130/1/3 128/1/3 129/1/3
f 133/1/3 132/1/3 131/1/3
f 134/1/3 132/1/3 133/1/3
f 137/1/3 136/1/3 135/1/3
f 138/1/3 136/1/3 137/1/3
f 141/1/3 140/1/3 139/1/3
f 142/1/3 140/1/3 141/1/3
f 145/1/3 144/1/3 143/1/3
f 146/1/3 144/1/3 145/1/3
f 147/1/4 148/1/4 149/1/4
f 149/1/4 148/1/4 150/1/4
f 156/1/5 152/1/5 151/1/5
f 157/2/5 153/2/5 152/2/5
f 157/1/5 152/1/5 156/1/5
f 158/1/5 154/1/5 153/1/5
f 158/2/5 153/2/5 157/2/5
f 159/1/5 154/1/5 158/1/5
f 162/1/5 156/1/5 155/1/5
f 163/3/5 157/3/5 156/3/5
f 163/1/5 156/1/5 162/1/5
f 164/1/5 160/1/5 159/1/5
f 164/3/5 159/3/5 158/3/5
f 165/1/5 160/1/5 164/1/5
f 168/1/5 162/1/5 161/1/5
f 169/3/5 163/3/5 162/3/5
f 169/1/5 162/1/5 168/1/5
f 170/1/5 166/1/5 165/1/5
f 170/3/5 165/3/5 164/3/5
f 171/1/5 166/1/5 170/1/5
f 174/1/5 168/1/5 167/1/5
f 175/2/5 169/2/5 168/2/5
f 175/1/5 168/1/5 174/1/5
f 176/1/5 172/1/5 171/1/5
f 176/2/5 171/2/5 170/2/5
f 177/1/5 172/1/5 176/1/5
f 180/1/5 174/1/5 173/1/5
f 181/2/5 175/2/5 174/2/5
f 181/1/5 174/1/5 180/1/5
f 182/1/5 178/1/5 177/1/5
f 182/2/5 177/2/5 176/2/5
f 183/1/5 178/1/5 182/1/5
f 186/1/5 180/1/5 179/1/5
f 187/3/5 181/3/5 180/3/5
f 187/1/5 180/1/5 186/1/5
f 188/1/5 184/1/5 183/1/5
f 188/3/5 183/3/5 182/3/5
f 189/1/5 184/1/5 188/1/5
f 192/1/5 186/1/5 185/1/5
f 193/3/5 187/3/5 186/3/5
f 193/1/5 186/1/5 192/1/5
f 194/1/5 190/1/5 189/1/5
f 194/3/5 189/3/5 188/3/5
f 195/1/5 190/1/5 194/1/5
f 197/2/5 195/2/5 194/2/5
f 197/1/5 196/1/5 195/1/5
f 198/1/5 196/1/5 197/1/5
f 200/1/5 192/1/5 191/1/5
f 201/2/5 193/2/5 192/2/5
f 201/1/5 192/1/5 200/1/5
f 202/2/5 198/2/5 197/2/5
f 204/1/5 200/1/5 199/1/5
f 204/2/5 201/2/5 200/2/5
f 205/3/5 187/3/5 193/3/5
f 205/2/5 201/2/5 204/2/5
f 205/2/5 193/2/5 201/2/5
f 206/2/5 175/2/5 181/2/5
f 206/3/5 187/3/5 205/3/5
f 206/3/5 181/3/5 187/3/5
f 207/3/5 163/3/5 169/3/5
f 207/2/5 175/2/5 206/2/5
f 207/2/5 169/2/5 175/2/5
f 208/3/5 157/3/5 163/3/5
f 208/3/5 163/3/5 207/3/5
f 208/2/5 158/2/5 157/2/5
f 209/3/5 164/3/5 158/3/5
f 209/2/5 158/2/5 208/2/5
f 209/3/5 170/3/5 164/3/5
f 210/2/5 176/2/5 170/2/5
f 210/3/5 170/3/5 209/3/5
f 210/2/5 182/2/5 176/2/5
f 211/3/5 194/3/5 188/3/5
f 211/2/5 182/2/5 210/2/5
f 211/3/5 188/3/5 182/3/5
f 212/2/5 197/2/5 194/2/5
f 212/3/5 194/3/5 211/3/5
f 212/2/5 202/2/5 197/2/5
f 213/1/5 203/1/5 202/1/5
f 213/2/5 202/2/5 212/2/5
f 214/1/5 206/1/5 205/1/5
f 214/1/5 207/1/5 206/1/5
f 214/1/5 213/1/5 212/1/5
f 214/1/5 210/1/5 209/1/5
f 214/1/5 212/1/5 211/1/5
f 214/1/5 211/1/5 210/1/5
f 214/1/5 204/1/5 199/1/5
f 214/1/5 209/1/5 208/1/5
f 214/1/5 208/1/5 207/1/5
f 214/1/5 205/1/5 204/1/5
f 215/1/5 203/1/5 213/1/5
f 215/1/5 213/1/5 214/1/5
f 216/1/6 217/1/6 221/1/6
f 217/2/6 218/2/6 222/2/6
f 221/1/6 217/1/6 222/1/6
f 218/1/6 219/1/6 223/1/6
f 222/2/6 218/2/6 223/2/6
f 223/1/6 219/1/6 224/1/6
f 220/1/6 221/1/6 227/1/6
f 221/3/6 222/3/6 228/3/6
f 227/1/6 221/1/6 228/1/6
f 224/1/6 225/1/6 229/1/6
f 223/3/6 224/3/6 229/3/6
f 229/1/6 225/1/6 230/1/6
f 226/1/6 227/1/6 233/1/6
f 227/3/6 228/3/6 234/3/6
f 233/1/6 227/1/6 234/1/6
f 230/1/6 231/1/6 235/1/6
f 229/3/6 230/3/6 235/3/6
f 235/1/6 231/1/6 236/1/6
f 232/1/6 233/1/6 239/1/6
f 233/2/6 234/2/6 240/2/6
f 239/1/6 233/1/6 240/1/6
f 236/1/6 237/1/6 241/1/6
f 235/2/6 236/2/6 241/2/6
f 241/1/6 237/1/6 242/1/6
f 238/1/6 239/1/6 245/1/6
f 239/2/6 240/2/6 246/2/6
f 245/1/6 239/1/6 246/1/6
f 242/1/6 243/1/6 247/1/6
f 241/2/6 242/2/6 247/2/6
f 247/1/6 243/1/6 248/1/6
f 244/1/6 245/1/6 251/1/6
f 245/3/6 246/3/6 252/3/6
f 251/1/6 245/1/6 252/1/6
f 248/1/6 249/1/6 253/1/6
f 247/3/6 248/3/6 253/3/6
f 253/1/6 249/1/6 254/1/6
f 250/1/6 251/1/6 257/1/6
f 251/3/6 252/3/6 258/3/6
f 257/1/6 251/1/6 258/1/6
f 254/1/6 255/1/6 259/1/6
f 253/3/6 254/3/6 259/3/6
f 259/1/6 255/1/6 260/1/6
f 259/2/6 260/2/6 262/2/6
f 260/1/6 261/1/6 262/1/6
f 262/1/6 261/1/6 263/1/6
f 256/1/6 257/1/6 265/1/6
f 257/2/6 258/2/6 266/2/6
f 265/1/6 257/1/6 266/1/6
f 262/2/6 263/2/6 267/2/6
f 264/1/6 265/1/6 269/1/6
f 265/2/6 266/2/6 269/2/6
f 258/3/6 252/3/6 270/3/6
f 269/2/6 266/2/6 270/2/6
f 266/2/6 258/2/6 270/2/6
f 246/2/6 240/2/6 271/2/6
f 270/3/6 252/3/6 271/3/6
f 252/3/6 246/3/6 271/3/6
f 234/3/6 228/3/6 272/3/6
f 271/2/6 240/2/6 272/2/6
f 240/2/6 234/2/6 272/2/6
f 228/3/6 222/3/6 273/3/6
f 272/3/6 228/3/6 273/3/6
f 222/2/6 223/2/6 273/2/6
f 223/3/6 229/3/6 274/3/6
f 273/2/6 223/2/6 274/2/6
f 229/3/6 235/3/6 274/3/6
f 235/2/6 241/2/6 275/2/6
f 274/3/6 235/3/6 275/3/6
f 241/2/6 247/2/6 275/2/6
f 253/3/6 259/3/6 276/3/6
f 275/2/6 247/2/6 276/2/6
f 247/3/6 253/3/6 276/3/6
f 259/2/6 262/2/6 277/2/6
f 276/3/6 259/3/6 277/3/6
f 262/2/6 267/2/6 277/2/6
f 267/1/6 268/1/6 278/1/6
f 277/2/6 267/2/6 278/2/6
f 270/1/6 271/1/6 279/1/6
f 271/1/6 272/1/6 279/1/6
f 277/1/6 278/1/6 279/1/6
f 274/1/6 275/1/6 279/1/6
f 276/1/6 277/1/6 279/1/6
f 275/1/6 276/1/6 279/1/6
f 264/1/6 269/1/6 279/1/6
f 273/1/6 274/1/6 279/1/6
f 272/1/6 273/1/6 279/1/6
f 269/1/6 270/1/6 279/1/6
f 278/1/6 268/1/6 280/1/6
f 279/1/6 278/1/6 280/1/6
